<mxfile host="app.diagrams.net" agent="Mozilla/5.0 (Windows NT 10.0; Win64; x64) AppleWebKit/537.36 (KHTML, like Gecko) Chrome/138.0.0.0 Safari/537.36 Edg/138.0.0.0" version="28.0.7">
  <diagram name="Page-1" id="3sv8AZ-OFePN0Q0oZRgw">
    <mxGraphModel dx="1034" dy="570" grid="1" gridSize="10" guides="1" tooltips="1" connect="1" arrows="1" fold="1" page="1" pageScale="1" pageWidth="850" pageHeight="1100" math="0" shadow="0">
      <root>
        <mxCell id="0" />
        <mxCell id="1" parent="0" />
        <mxCell id="JHEGx3fcKYTorQx9e_ME-15" value="Raspberry Pi" style="rounded=1;whiteSpace=wrap;html=1;dashed=1;dashPattern=8 8;labelPosition=center;verticalLabelPosition=top;align=center;verticalAlign=bottom;fontSize=20;" vertex="1" parent="1">
          <mxGeometry x="140" y="80" width="660" height="660" as="geometry" />
        </mxCell>
        <mxCell id="JHEGx3fcKYTorQx9e_ME-10" value="Rpi IP Address port 3000&lt;div&gt;(Network React Dev Web Server)&lt;/div&gt;" style="ellipse;shape=cloud;whiteSpace=wrap;html=1;" vertex="1" parent="1">
          <mxGeometry x="130" y="520" width="270" height="180" as="geometry" />
        </mxCell>
        <mxCell id="JHEGx3fcKYTorQx9e_ME-1" value="valve&lt;div&gt;(python module)&lt;/div&gt;" style="rounded=1;whiteSpace=wrap;html=1;" vertex="1" parent="1">
          <mxGeometry x="620" y="120" width="120" height="60" as="geometry" />
        </mxCell>
        <mxCell id="JHEGx3fcKYTorQx9e_ME-2" value="LED&lt;br&gt;&lt;div&gt;(python module)&lt;/div&gt;" style="rounded=1;whiteSpace=wrap;html=1;" vertex="1" parent="1">
          <mxGeometry x="620" y="220" width="120" height="60" as="geometry" />
        </mxCell>
        <mxCell id="JHEGx3fcKYTorQx9e_ME-3" value="Soil Sensor&lt;br&gt;&lt;div&gt;(python module)&lt;/div&gt;" style="rounded=1;whiteSpace=wrap;html=1;" vertex="1" parent="1">
          <mxGeometry x="620" y="330" width="120" height="60" as="geometry" />
        </mxCell>
        <mxCell id="JHEGx3fcKYTorQx9e_ME-5" style="edgeStyle=orthogonalEdgeStyle;rounded=0;orthogonalLoop=1;jettySize=auto;html=1;exitX=1;exitY=0.25;exitDx=0;exitDy=0;entryX=0;entryY=0.5;entryDx=0;entryDy=0;startArrow=classic;startFill=1;" edge="1" parent="1" source="JHEGx3fcKYTorQx9e_ME-4" target="JHEGx3fcKYTorQx9e_ME-1">
          <mxGeometry relative="1" as="geometry" />
        </mxCell>
        <mxCell id="JHEGx3fcKYTorQx9e_ME-6" style="edgeStyle=orthogonalEdgeStyle;rounded=0;orthogonalLoop=1;jettySize=auto;html=1;exitX=1;exitY=0.5;exitDx=0;exitDy=0;entryX=0;entryY=0.5;entryDx=0;entryDy=0;startArrow=classic;startFill=1;" edge="1" parent="1" source="JHEGx3fcKYTorQx9e_ME-4" target="JHEGx3fcKYTorQx9e_ME-2">
          <mxGeometry relative="1" as="geometry" />
        </mxCell>
        <mxCell id="JHEGx3fcKYTorQx9e_ME-7" style="edgeStyle=orthogonalEdgeStyle;rounded=0;orthogonalLoop=1;jettySize=auto;html=1;exitX=1;exitY=0.75;exitDx=0;exitDy=0;entryX=0;entryY=0.5;entryDx=0;entryDy=0;startArrow=classic;startFill=1;" edge="1" parent="1" source="JHEGx3fcKYTorQx9e_ME-4" target="JHEGx3fcKYTorQx9e_ME-3">
          <mxGeometry relative="1" as="geometry" />
        </mxCell>
        <mxCell id="JHEGx3fcKYTorQx9e_ME-4" value="API.py&lt;div&gt;(Flask Routes)&lt;/div&gt;" style="rounded=1;whiteSpace=wrap;html=1;" vertex="1" parent="1">
          <mxGeometry x="450" y="125" width="120" height="250" as="geometry" />
        </mxCell>
        <mxCell id="JHEGx3fcKYTorQx9e_ME-8" value="Rpi IP Address port 5000&lt;div&gt;(Network Flask Web Server)&lt;/div&gt;" style="ellipse;shape=cloud;whiteSpace=wrap;html=1;" vertex="1" parent="1">
          <mxGeometry x="150" y="190" width="250" height="150" as="geometry" />
        </mxCell>
        <mxCell id="JHEGx3fcKYTorQx9e_ME-14" style="edgeStyle=orthogonalEdgeStyle;rounded=0;orthogonalLoop=1;jettySize=auto;html=1;exitX=0;exitY=0.5;exitDx=0;exitDy=0;entryX=0;entryY=0.5;entryDx=0;entryDy=0;dashed=1;dashPattern=8 8;startArrow=classic;startFill=1;" edge="1" parent="1" source="JHEGx3fcKYTorQx9e_ME-9" target="JHEGx3fcKYTorQx9e_ME-4">
          <mxGeometry relative="1" as="geometry">
            <Array as="points">
              <mxPoint x="360" y="605" />
              <mxPoint x="360" y="250" />
            </Array>
          </mxGeometry>
        </mxCell>
        <mxCell id="JHEGx3fcKYTorQx9e_ME-9" value="Dashboard Frontend&lt;div&gt;(React App)&lt;/div&gt;" style="rounded=1;whiteSpace=wrap;html=1;" vertex="1" parent="1">
          <mxGeometry x="450" y="480" width="120" height="250" as="geometry" />
        </mxCell>
      </root>
    </mxGraphModel>
  </diagram>
</mxfile>
